<svg width="101" height="64" viewBox="0 0 101 64" fill="none" xmlns="http://www.w3.org/2000/svg">
<rect x="0.5" y="0.5" width="100" height="63" fill="black"/>
<path d="M56 17.2C57.7 18.2 58.5 20 58.5 22C58.5 24.5 56 26.5 53.5 26.5H50.9L50.3 30.1C50.2532 30.3293 50.1276 30.5349 49.9449 30.6811C49.7621 30.8272 49.5339 30.9047 49.3 30.9H46.6C46.525 30.9015 46.4506 30.8861 46.3824 30.855C46.3142 30.8239 46.2538 30.7778 46.2058 30.7202C46.1577 30.6626 46.1233 30.5949 46.105 30.5222C46.0867 30.4494 46.085 30.3735 46.1 30.3L46.3 28.9M48.5 23H51C53.5 23 56 20.5 56 18C56 15 54.1 13 51 13H45.5C45 13 44.5 13.5 44.5 14L42.5 28C42.5 28.5 43 29 43.5 29H46.3L47.5 24C47.6 23.4 47.9 23 48.5 23Z" stroke="#ABBBC2" stroke-width="1.5" stroke-linecap="round" stroke-linejoin="round"/>
<path d="M34.984 41.186C35.5533 41.186 36.0527 41.3073 36.482 41.55C36.9207 41.7833 37.2567 42.1147 37.49 42.544C37.7327 42.9733 37.854 43.468 37.854 44.028C37.854 44.588 37.7327 45.078 37.49 45.498C37.2473 45.918 36.902 46.2447 36.454 46.478C36.0153 46.7113 35.5067 46.828 34.928 46.828H32.464C32.4267 46.828 32.408 46.8467 32.408 46.884V50.86C32.408 50.9533 32.3613 51 32.268 51H31.204C31.1107 51 31.064 50.9533 31.064 50.86V41.326C31.064 41.2327 31.1107 41.186 31.204 41.186H34.984ZM34.802 45.736C35.3153 45.736 35.726 45.582 36.034 45.274C36.3513 44.966 36.51 44.56 36.51 44.056C36.51 43.5427 36.3513 43.132 36.034 42.824C35.726 42.5067 35.3153 42.348 34.802 42.348H32.464C32.4267 42.348 32.408 42.3667 32.408 42.404V45.68C32.408 45.7173 32.4267 45.736 32.464 45.736H34.802ZM41.8281 43.762C42.3975 43.762 42.8921 43.8647 43.3121 44.07C43.7415 44.266 44.0681 44.546 44.2921 44.91C44.5255 45.2647 44.6421 45.6707 44.6421 46.128V50.86C44.6421 50.9533 44.5955 51 44.5021 51H43.4381C43.3448 51 43.2981 50.9533 43.2981 50.86V50.356C43.2981 50.3093 43.2748 50.3 43.2281 50.328C42.9855 50.58 42.6868 50.776 42.3321 50.916C41.9868 51.0467 41.5995 51.112 41.1701 51.112C40.4795 51.112 39.9055 50.9393 39.4481 50.594C39.0001 50.2393 38.7761 49.7073 38.7761 48.998C38.7761 48.27 39.0281 47.7007 39.5321 47.29C40.0455 46.87 40.7595 46.66 41.6741 46.66H43.2421C43.2795 46.66 43.2981 46.6413 43.2981 46.604V46.226C43.2981 45.8153 43.1768 45.498 42.9341 45.274C42.7008 45.0407 42.3415 44.924 41.8561 44.924C41.4641 44.924 41.1421 45.0033 40.8901 45.162C40.6475 45.3113 40.4981 45.5167 40.4421 45.778C40.4141 45.8713 40.3581 45.9133 40.2741 45.904L39.1401 45.75C39.0468 45.7313 39.0048 45.694 39.0141 45.638C39.0888 45.0873 39.3828 44.6393 39.8961 44.294C40.4095 43.9393 41.0535 43.762 41.8281 43.762ZM41.4641 49.978C41.9588 49.978 42.3881 49.8473 42.7521 49.586C43.1161 49.3247 43.2981 48.9933 43.2981 48.592V47.766C43.2981 47.7287 43.2795 47.71 43.2421 47.71H41.9261C41.3755 47.71 40.9368 47.8173 40.6101 48.032C40.2835 48.2467 40.1201 48.5453 40.1201 48.928C40.1201 49.2733 40.2415 49.5347 40.4841 49.712C40.7361 49.8893 41.0628 49.978 41.4641 49.978ZM46.1235 53.786C46.0582 53.786 46.0255 53.7393 46.0255 53.646V52.82C46.0255 52.7267 46.0722 52.68 46.1655 52.68H46.1935C46.5668 52.6707 46.8608 52.624 47.0755 52.54C47.2902 52.456 47.4675 52.2973 47.6075 52.064C47.7475 51.84 47.8828 51.4993 48.0135 51.042C48.0228 51.0327 48.0228 51.0187 48.0135 51C48.0135 50.972 48.0135 50.958 48.0135 50.958L45.6755 44.028L45.6615 43.972C45.6615 43.9067 45.7035 43.874 45.7875 43.874H46.9215C47.0055 43.874 47.0615 43.9113 47.0895 43.986L48.6715 49.264C48.6808 49.2827 48.6948 49.292 48.7135 49.292C48.7322 49.292 48.7462 49.2827 48.7555 49.264L50.3235 43.986C50.3515 43.9113 50.4075 43.874 50.4915 43.874H51.5975C51.7002 43.874 51.7375 43.9253 51.7095 44.028L49.1615 51.49C48.9468 52.134 48.7322 52.61 48.5175 52.918C48.3028 53.2353 48.0228 53.4593 47.6775 53.59C47.3322 53.7207 46.8468 53.786 46.2215 53.786H46.1235ZM58.7737 45.666C58.9511 46.17 59.0397 46.7673 59.0397 47.458C59.0397 48.1113 58.9651 48.676 58.8157 49.152C58.6197 49.7773 58.2977 50.2627 57.8497 50.608C57.4017 50.944 56.8277 51.112 56.1277 51.112C55.8104 51.112 55.5071 51.0513 55.2177 50.93C54.9377 50.7993 54.6951 50.6173 54.4897 50.384C54.4711 50.3653 54.4524 50.3607 54.4337 50.37C54.4244 50.3793 54.4197 50.3933 54.4197 50.412V53.534C54.4197 53.6273 54.3731 53.674 54.2797 53.674H53.2157C53.1224 53.674 53.0757 53.6273 53.0757 53.534V44.014C53.0757 43.9207 53.1224 43.874 53.2157 43.874H54.2797C54.3731 43.874 54.4197 43.9207 54.4197 44.014V44.476C54.4197 44.4947 54.4244 44.5087 54.4337 44.518C54.4524 44.5273 54.4711 44.5227 54.4897 44.504C54.6951 44.2707 54.9377 44.0887 55.2177 43.958C55.4977 43.8273 55.8011 43.762 56.1277 43.762C56.7997 43.762 57.3551 43.93 57.7937 44.266C58.2417 44.5927 58.5684 45.0593 58.7737 45.666ZM57.2337 49.278C57.5324 48.83 57.6817 48.214 57.6817 47.43C57.6817 46.7113 57.5651 46.1327 57.3317 45.694C57.0611 45.1807 56.6177 44.924 56.0017 44.924C55.4604 44.924 55.0497 45.176 54.7697 45.68C54.5457 46.0813 54.4337 46.6693 54.4337 47.444C54.4337 48.228 54.5551 48.8253 54.7977 49.236C55.0684 49.712 55.4651 49.95 55.9877 49.95C56.5477 49.95 56.9631 49.726 57.2337 49.278ZM63.4024 43.762C63.9717 43.762 64.4664 43.8647 64.8864 44.07C65.3157 44.266 65.6424 44.546 65.8664 44.91C66.0997 45.2647 66.2164 45.6707 66.2164 46.128V50.86C66.2164 50.9533 66.1697 51 66.0764 51H65.0124C64.919 51 64.8724 50.9533 64.8724 50.86V50.356C64.8724 50.3093 64.849 50.3 64.8024 50.328C64.5597 50.58 64.261 50.776 63.9064 50.916C63.561 51.0467 63.1737 51.112 62.7444 51.112C62.0537 51.112 61.4797 50.9393 61.0224 50.594C60.5744 50.2393 60.3504 49.7073 60.3504 48.998C60.3504 48.27 60.6024 47.7007 61.1064 47.29C61.6197 46.87 62.3337 46.66 63.2484 46.66H64.8164C64.8537 46.66 64.8724 46.6413 64.8724 46.604V46.226C64.8724 45.8153 64.751 45.498 64.5084 45.274C64.275 45.0407 63.9157 44.924 63.4304 44.924C63.0384 44.924 62.7164 45.0033 62.4644 45.162C62.2217 45.3113 62.0724 45.5167 62.0164 45.778C61.9884 45.8713 61.9324 45.9133 61.8484 45.904L60.7144 45.75C60.621 45.7313 60.579 45.694 60.5884 45.638C60.663 45.0873 60.957 44.6393 61.4704 44.294C61.9837 43.9393 62.6277 43.762 63.4024 43.762ZM63.0384 49.978C63.533 49.978 63.9624 49.8473 64.3264 49.586C64.6904 49.3247 64.8724 48.9933 64.8724 48.592V47.766C64.8724 47.7287 64.8537 47.71 64.8164 47.71H63.5004C62.9497 47.71 62.511 47.8173 62.1844 48.032C61.8577 48.2467 61.6944 48.5453 61.6944 48.928C61.6944 49.2733 61.8157 49.5347 62.0584 49.712C62.3104 49.8893 62.637 49.978 63.0384 49.978ZM68.1708 51C68.0774 51 68.0308 50.9533 68.0308 50.86V41.34C68.0308 41.2467 68.0774 41.2 68.1708 41.2H69.2348C69.3281 41.2 69.3748 41.2467 69.3748 41.34V50.86C69.3748 50.9533 69.3281 51 69.2348 51H68.1708Z" fill="#ABBBC2"/>
<rect x="0.5" y="0.5" width="100" height="63" stroke="#393C49"/>
</svg>
