<svg width="101" height="64" viewBox="0 0 101 64" fill="none" xmlns="http://www.w3.org/2000/svg">
<rect x="0.5" y="0.5" width="100" height="63" fill="black"/>
<path d="M54.688 12.5C57.8978 12.5 60.5 15.1612 60.5 18.4437V25.5563C60.5 28.8388 57.8978 31.5 54.688 31.5H46.312C43.1022 31.5 40.5 28.8388 40.5 25.5563V18.4437C40.5 15.1612 43.1022 12.5 46.312 12.5H54.688ZM54.688 13.9865H46.312C43.905 13.9865 41.9536 15.9821 41.9536 18.4437V25.5563C41.9536 28.0179 43.905 30.0135 46.312 30.0135H54.688C57.095 30.0135 59.0464 28.0179 59.0464 25.5563L59.046 25.279L55.8499 25.2798C54.0084 25.2787 52.5159 23.7531 52.5147 21.8695C52.5147 20.0491 53.9101 18.5624 55.6673 18.4643L55.8504 18.4592L59.046 18.459L59.0464 18.4437C59.0464 16.0545 57.2081 14.1043 54.8991 13.9917L54.688 13.9865ZM59.046 19.945L55.8508 19.9457C54.8109 19.9463 53.9683 20.8074 53.9683 21.869C53.9689 22.8811 54.7329 23.7102 55.7033 23.7874L55.8504 23.7933L59.046 23.793V19.945ZM56.2942 21.0652C56.6956 21.0652 57.021 21.3979 57.021 21.8084C57.021 22.1847 56.7475 22.4957 56.3928 22.5449L56.2942 22.5517H55.9921C55.5907 22.5517 55.2653 22.2189 55.2653 21.8084C55.2653 21.4322 55.5388 21.1212 55.8935 21.072L55.9921 21.0652H56.2942ZM50.8539 16.9974C51.2553 16.9974 51.5807 17.3301 51.5807 17.7406C51.5807 18.1169 51.3073 18.4279 50.9525 18.4771L50.8539 18.4839H45.622C45.2206 18.4839 44.8952 18.1511 44.8952 17.7406C44.8952 17.3643 45.1687 17.0534 45.5234 17.0041L45.622 16.9974H50.8539Z" fill="#ABBBC2"/>
<path d="M39.298 51.126C38.626 51.126 38.0287 50.9953 37.506 50.734C36.9927 50.4633 36.5913 50.0853 36.302 49.6C36.022 49.1053 35.882 48.5407 35.882 47.906V44.28C35.882 43.6453 36.022 43.09 36.302 42.614C36.5913 42.1287 36.9927 41.7553 37.506 41.494C38.0287 41.2233 38.626 41.088 39.298 41.088C39.97 41.088 40.5627 41.2187 41.076 41.48C41.5893 41.732 41.986 42.0913 42.266 42.558C42.5553 43.0247 42.7 43.566 42.7 44.182V44.196C42.7 44.2427 42.686 44.28 42.658 44.308C42.63 44.336 42.5973 44.35 42.56 44.35L41.496 44.406C41.4027 44.406 41.356 44.364 41.356 44.28V44.238C41.356 43.6407 41.1693 43.16 40.796 42.796C40.4227 42.432 39.9233 42.25 39.298 42.25C38.6727 42.25 38.1687 42.432 37.786 42.796C37.4127 43.16 37.226 43.6407 37.226 44.238V47.962C37.226 48.5593 37.4127 49.04 37.786 49.404C38.1687 49.768 38.6727 49.95 39.298 49.95C39.9233 49.95 40.4227 49.768 40.796 49.404C41.1693 49.04 41.356 48.5593 41.356 47.962V47.934C41.356 47.85 41.4027 47.808 41.496 47.808L42.56 47.864C42.6533 47.864 42.7 47.9107 42.7 48.004C42.7 48.62 42.5553 49.166 42.266 49.642C41.986 50.1087 41.5893 50.4727 41.076 50.734C40.5627 50.9953 39.97 51.126 39.298 51.126ZM47.0059 43.762C47.5752 43.762 48.0699 43.8647 48.4899 44.07C48.9192 44.266 49.2459 44.546 49.4699 44.91C49.7032 45.2647 49.8199 45.6707 49.8199 46.128V50.86C49.8199 50.9533 49.7732 51 49.6799 51H48.6159C48.5225 51 48.4759 50.9533 48.4759 50.86V50.356C48.4759 50.3093 48.4525 50.3 48.4059 50.328C48.1632 50.58 47.8645 50.776 47.5099 50.916C47.1645 51.0467 46.7772 51.112 46.3479 51.112C45.6572 51.112 45.0832 50.9393 44.6259 50.594C44.1779 50.2393 43.9539 49.7073 43.9539 48.998C43.9539 48.27 44.2059 47.7007 44.7099 47.29C45.2232 46.87 45.9372 46.66 46.8519 46.66H48.4199C48.4572 46.66 48.4759 46.6413 48.4759 46.604V46.226C48.4759 45.8153 48.3545 45.498 48.1119 45.274C47.8785 45.0407 47.5192 44.924 47.0339 44.924C46.6419 44.924 46.3199 45.0033 46.0679 45.162C45.8252 45.3113 45.6759 45.5167 45.6199 45.778C45.5919 45.8713 45.5359 45.9133 45.4519 45.904L44.3179 45.75C44.2245 45.7313 44.1825 45.694 44.1919 45.638C44.2665 45.0873 44.5605 44.6393 45.0739 44.294C45.5872 43.9393 46.2312 43.762 47.0059 43.762ZM46.6419 49.978C47.1365 49.978 47.5659 49.8473 47.9299 49.586C48.2939 49.3247 48.4759 48.9933 48.4759 48.592V47.766C48.4759 47.7287 48.4572 47.71 48.4199 47.71H47.1039C46.5532 47.71 46.1145 47.8173 45.7879 48.032C45.4612 48.2467 45.2979 48.5453 45.2979 48.928C45.2979 49.2733 45.4192 49.5347 45.6619 49.712C45.9139 49.8893 46.2405 49.978 46.6419 49.978ZM54.1403 51.084C53.5803 51.084 53.0856 51 52.6563 50.832C52.2363 50.664 51.9096 50.4353 51.6763 50.146C51.443 49.8473 51.3263 49.5207 51.3263 49.166V49.012C51.3263 48.9187 51.373 48.872 51.4663 48.872H52.4743C52.5676 48.872 52.6143 48.9187 52.6143 49.012V49.082C52.6143 49.3433 52.7543 49.572 53.0343 49.768C53.3236 49.964 53.6876 50.062 54.1263 50.062C54.5463 50.062 54.887 49.9733 55.1483 49.796C55.4096 49.6093 55.5403 49.376 55.5403 49.096C55.5403 48.8253 55.419 48.6247 55.1763 48.494C54.9336 48.354 54.5416 48.2093 54.0003 48.06C53.4683 47.9107 53.0203 47.7613 52.6563 47.612C52.3016 47.4533 51.9983 47.234 51.7463 46.954C51.5036 46.6647 51.3823 46.296 51.3823 45.848C51.3823 45.2227 51.625 44.728 52.1103 44.364C52.605 43.9907 53.2583 43.804 54.0703 43.804C54.6116 43.804 55.0876 43.8927 55.4983 44.07C55.9183 44.238 56.2403 44.476 56.4643 44.784C56.6883 45.092 56.8003 45.4373 56.8003 45.82V45.862C56.8003 45.9553 56.7536 46.002 56.6603 46.002H55.6803C55.587 46.002 55.5403 45.9553 55.5403 45.862V45.82C55.5403 45.5493 55.405 45.3253 55.1343 45.148C54.873 44.9613 54.5136 44.868 54.0563 44.868C53.6456 44.868 53.3096 44.9473 53.0483 45.106C52.7963 45.2647 52.6703 45.4793 52.6703 45.75C52.6703 46.0207 52.7916 46.226 53.0343 46.366C53.2863 46.506 53.6876 46.6553 54.2383 46.814C54.7796 46.9633 55.2276 47.1127 55.5823 47.262C55.9463 47.402 56.2543 47.6167 56.5063 47.906C56.7583 48.186 56.8843 48.5547 56.8843 49.012C56.8843 49.6467 56.6323 50.1507 56.1283 50.524C55.6336 50.8973 54.971 51.084 54.1403 51.084ZM61.6346 43.776C62.3999 43.776 63.0066 44 63.4546 44.448C63.9026 44.8867 64.1266 45.484 64.1266 46.24V50.86C64.1266 50.9533 64.0799 51 63.9866 51H62.9226C62.8292 51 62.7826 50.9533 62.7826 50.86V46.506C62.7826 46.0393 62.6472 45.6613 62.3766 45.372C62.1059 45.0827 61.7466 44.938 61.2986 44.938C60.8599 44.938 60.5006 45.0827 60.2206 45.372C59.9406 45.6613 59.8006 46.0347 59.8006 46.492V50.86C59.8006 50.9533 59.7539 51 59.6606 51H58.5966C58.5032 51 58.4566 50.9533 58.4566 50.86V41.34C58.4566 41.2467 58.5032 41.2 58.5966 41.2H59.6606C59.7539 41.2 59.8006 41.2467 59.8006 41.34V44.518C59.8006 44.5367 59.8052 44.5507 59.8146 44.56C59.8332 44.5693 59.8472 44.5647 59.8566 44.546C60.2579 44.0327 60.8506 43.776 61.6346 43.776Z" fill="#ABBBC2"/>
<rect x="0.5" y="0.5" width="100" height="63" stroke="#393C49"/>
</svg>
